HIERARCHY
ROOT Hips
{
	OFFSET 0.000000 0.000000 0.000000
	CHANNELS 6 Xposition Yposition Zposition Xrotation Yrotation Zrotation
	JOINT C_ctrl
	{
		OFFSET 0.000000 35.040482 -0.000011
		CHANNELS 3 Xrotation Yrotation Zrotation
		JOINT Bip01
		{
			OFFSET -41.537640 41.789009 -0.000007
			CHANNELS 3 Xrotation Yrotation Zrotation
			JOINT Bip01_Pelvis
			{
				OFFSET -2.462887 0.000000 0.000000
				CHANNELS 3 Xrotation Yrotation Zrotation
				JOINT BN_Tail_01
				{
					OFFSET -11.399368 7.351341 -0.000013
					CHANNELS 3 Xrotation Yrotation Zrotation
					JOINT BN_Tail_02
					{
						OFFSET -11.365196 -0.343025 0.000012
						CHANNELS 3 Xrotation Yrotation Zrotation
						JOINT BN_Tail_03
						{
							OFFSET -15.076256 -0.454979 0.000017
							CHANNELS 3 Xrotation Yrotation Zrotation
							JOINT BN_Tail_04
							{
								OFFSET -17.395691 -0.525002 0.000016
								CHANNELS 3 Xrotation Yrotation Zrotation
								JOINT BN_Tail_05
								{
									OFFSET -16.699837 -0.504005 0.000016
									CHANNELS 3 Xrotation Yrotation Zrotation
									End Site
									{
										OFFSET 0.503998 -16.699829 0.000067
									}
								}
							}
						}
					}
				}
				JOINT Bip01_Spine
				{
					OFFSET 8.297798 5.916809 -0.000020
					CHANNELS 3 Xrotation Yrotation Zrotation
					JOINT Bip01_R_Thigh
					{
						OFFSET -8.297779 -5.916794 10.541781
						CHANNELS 3 Xrotation Yrotation Zrotation
						JOINT Bip01_R_Calf
						{
							OFFSET 5.631542 -22.906792 0.862690
							CHANNELS 3 Xrotation Yrotation Zrotation
							JOINT Bip01_R_HorseLink
							{
								OFFSET -16.984341 -19.231926 -3.555767
								CHANNELS 3 Xrotation Yrotation Zrotation
								JOINT Bip01_R_Foot
								{
									OFFSET 4.290367 -24.783146 0.578056
									CHANNELS 3 Xrotation Yrotation Zrotation
									JOINT Bip01_R_Toe0
									{
										OFFSET 3.561211 -5.815116 0.760802
										CHANNELS 3 Xrotation Yrotation Zrotation
										JOINT Bip01_R_Toe0Nub
										{
											OFFSET 16.135469 0.002017 1.534789
											CHANNELS 3 Xrotation Yrotation Zrotation
											End Site
											{
												OFFSET -0.000002 16.208284 -0.000056
											}
										}
									}
								}
							}
						}
					}
					JOINT Bip01_L_Thigh
					{
						OFFSET -8.297813 -5.916832 -10.541739
						CHANNELS 3 Xrotation Yrotation Zrotation
						JOINT Bip01_L_Calf
						{
							OFFSET 5.631535 -22.906792 -0.862625
							CHANNELS 3 Xrotation Yrotation Zrotation
							JOINT Bip01_L_HorseLink
							{
								OFFSET -16.984318 -19.231949 3.555875
								CHANNELS 3 Xrotation Yrotation Zrotation
								JOINT Bip01_L_Foot
								{
									OFFSET 4.290367 -24.783169 -0.577965
									CHANNELS 3 Xrotation Yrotation Zrotation
									JOINT Bip01_L_Toe0
									{
										OFFSET 3.561245 -5.815111 -0.760799
										CHANNELS 3 Xrotation Yrotation Zrotation
										JOINT Bip01_L_Toe0Nub
										{
											OFFSET 6.574303 -0.000005 -1.538561
											CHANNELS 3 Xrotation Yrotation Zrotation
											End Site
											{
												OFFSET 0.000004 -6.751935 0.000023
											}
										}
									}
								}
							}
						}
					}
					JOINT Bip01_Spine1
					{
						OFFSET 20.556803 -4.626213 -0.000025
						CHANNELS 3 Xrotation Yrotation Zrotation
						JOINT Saddle
						{
							OFFSET 17.608810 18.174690 -0.000143
							CHANNELS 3 Xrotation Yrotation Zrotation
							End Site
							{
								OFFSET -0.000063 -0.000061 -22.448387
							}
						}
						JOINT BN_center
						{
							OFFSET 10.743275 -13.417107 -0.172041
							CHANNELS 3 Xrotation Yrotation Zrotation
							End Site
							{
								OFFSET 22.434088 0.553078 -0.579614
							}
						}
						JOINT Bip01_Spine2
						{
							OFFSET 24.765072 -2.054115 -0.000032
							CHANNELS 3 Xrotation Yrotation Zrotation
							JOINT Handle
							{
								OFFSET 63.735676 16.430748 -16.052464
								CHANNELS 3 Xrotation Yrotation Zrotation
								JOINT IK_Chain01
								{
									OFFSET -4.713058 -6.020439 0.185448
									CHANNELS 3 Xrotation Yrotation Zrotation
									End Site
									{
										OFFSET -0.000023 -0.000023 -7.648071
									}
								}
							}
							JOINT BN_hair04_01
							{
								OFFSET 1.987491 16.256981 -2.049672
								CHANNELS 3 Xrotation Yrotation Zrotation
								JOINT BN_hair04_02
								{
									OFFSET -1.318762 -3.831451 -6.174704
									CHANNELS 3 Xrotation Yrotation Zrotation
									JOINT BN_hair04_03
									{
										OFFSET -0.827490 -5.886627 -5.656666
										CHANNELS 3 Xrotation Yrotation Zrotation
										End Site
										{
											OFFSET -2.658262 5.010620 -5.929780
										}
									}
								}
							}
							JOINT Bip01_Neck
							{
								OFFSET 25.574577 9.433014 -0.000084
								CHANNELS 3 Xrotation Yrotation Zrotation
								JOINT Bip01_R_Clavicle
								{
									OFFSET -16.535652 0.011192 6.705692
									CHANNELS 3 Xrotation Yrotation Zrotation
									JOINT Bip01_R_UpperArm
									{
										OFFSET 20.272621 -12.959984 2.510816
										CHANNELS 3 Xrotation Yrotation Zrotation
										JOINT Bip01_R_Forearm
										{
											OFFSET -13.633509 -15.503704 -0.653585
											CHANNELS 3 Xrotation Yrotation Zrotation
											JOINT Bip01_R_Hand
											{
												OFFSET 2.580030 -27.804676 -1.136415
												CHANNELS 3 Xrotation Yrotation Zrotation
												JOINT Bip01_R_Finger0
												{
													OFFSET -0.281744 -19.659061 -0.398649
													CHANNELS 3 Xrotation Yrotation Zrotation
													JOINT Bip01_Xtra02
													{
														OFFSET 4.152210 -5.712314 0.433813
														CHANNELS 3 Xrotation Yrotation Zrotation
														JOINT Bip01_Xtra02Nub
														{
															OFFSET 15.457960 0.041654 0.507982
															CHANNELS 3 Xrotation Yrotation Zrotation
															End Site
															{
																OFFSET -15.421730 -0.157725 -1.163459
															}
														}
													}
													JOINT Bip01_R_Finger0Nub
													{
														OFFSET 8.362326 -9.718440 -0.143142
														CHANNELS 3 Xrotation Yrotation Zrotation
														End Site
														{
															OFFSET -1.213036 -0.198171 9.872291
														}
													}
												}
											}
										}
									}
								}
								JOINT Bip01_L_Clavicle
								{
									OFFSET -16.535673 0.011162 -6.705583
									CHANNELS 3 Xrotation Yrotation Zrotation
									JOINT Bip01_L_UpperArm
									{
										OFFSET 20.272615 -12.959999 -2.510836
										CHANNELS 3 Xrotation Yrotation Zrotation
										JOINT Bip01_L_Forearm
										{
											OFFSET -13.633495 -15.503681 0.653678
											CHANNELS 3 Xrotation Yrotation Zrotation
											JOINT Bip01_L_Hand
											{
												OFFSET 2.579988 -27.804686 1.136487
												CHANNELS 3 Xrotation Yrotation Zrotation
												JOINT Bip01_L_Finger0
												{
													OFFSET -0.281765 -19.659058 0.398696
													CHANNELS 3 Xrotation Yrotation Zrotation
													JOINT Bip01_Xtra01
													{
														OFFSET 4.083549 -5.738758 -0.666714
														CHANNELS 3 Xrotation Yrotation Zrotation
														JOINT Bip01_Xtra01Nub
														{
															OFFSET 6.758158 -0.395525 -0.023239
															CHANNELS 3 Xrotation Yrotation Zrotation
															End Site
															{
																OFFSET 6.764923 -0.254147 -0.029908
															}
														}
													}
													JOINT Bip01_L_Finger0Nub
													{
														OFFSET -0.012636 -9.629153 0.045740
														CHANNELS 3 Xrotation Yrotation Zrotation
														End Site
														{
															OFFSET 0.988407 0.004791 8.293357
														}
													}
												}
											}
										}
									}
								}
								JOINT BN_hair03_01
								{
									OFFSET -5.894140 16.270622 -2.498433
									CHANNELS 3 Xrotation Yrotation Zrotation
									JOINT BN_hair03_02
									{
										OFFSET -0.189278 -7.800507 -6.219162
										CHANNELS 3 Xrotation Yrotation Zrotation
										JOINT BN_hair03_03
										{
											OFFSET 0.612345 -10.844475 -3.370718
											CHANNELS 3 Xrotation Yrotation Zrotation
											End Site
											{
												OFFSET -2.273296 2.862007 -10.769416
											}
										}
									}
								}
								JOINT Bip01_Neck1
								{
									OFFSET 9.383755 11.908699 -0.000007
									CHANNELS 3 Xrotation Yrotation Zrotation
									JOINT BN_hair02_01
									{
										OFFSET 9.126320 18.808022 -1.420810
										CHANNELS 3 Xrotation Yrotation Zrotation
										JOINT BN_hair02_02
										{
											OFFSET 0.393478 -5.181091 -5.248574
											CHANNELS 3 Xrotation Yrotation Zrotation
											JOINT BN_hair02_03
											{
												OFFSET 0.762280 -8.167076 -0.230047
												CHANNELS 3 Xrotation Yrotation Zrotation
												End Site
												{
													OFFSET -0.025837 -1.251419 -8.109770
												}
											}
										}
									}
									JOINT Bip01_Head
									{
										OFFSET 14.266129 10.475403 -0.000008
										CHANNELS 3 Xrotation Yrotation Zrotation
										JOINT BN_Reins_01
										{
											OFFSET 18.547455 -15.740112 -0.000035
											CHANNELS 3 Xrotation Yrotation Zrotation
											JOINT BN_Reins_02
											{
												OFFSET -5.372810 -5.884506 0.000028
												CHANNELS 3 Xrotation Yrotation Zrotation
												JOINT BN_Reins_03
												{
													OFFSET -6.395866 -15.947449 0.000070
													CHANNELS 3 Xrotation Yrotation Zrotation
													JOINT BN_Halter_R_01
													{
														OFFSET -1.234055 -3.096100 7.096737
														CHANNELS 3 Xrotation Yrotation Zrotation
														End Site
														{
															OFFSET 10.514435 -4.176861 -0.000004
														}
													}
													JOINT BN_Halter_L_01
													{
														OFFSET -1.234062 -3.096146 -7.096726
														CHANNELS 3 Xrotation Yrotation Zrotation
														End Site
														{
															OFFSET -10.514435 4.176865 -0.000000
														}
													}
													JOINT BN_Reins_04
													{
														OFFSET -6.737644 -16.971684 0.000074
														CHANNELS 3 Xrotation Yrotation Zrotation
														JOINT BN_Halter_R_02
														{
															OFFSET -4.688869 -11.781956 7.096771
															CHANNELS 3 Xrotation Yrotation Zrotation
															End Site
															{
																OFFSET 14.669624 -5.827511 -0.000006
															}
														}
														JOINT BN_Halter_L_02
														{
															OFFSET -4.688892 -11.782017 -7.096693
															CHANNELS 3 Xrotation Yrotation Zrotation
															End Site
															{
																OFFSET -14.669624 5.827507 -0.000002
															}
														}
														JOINT BN_Reins_05
														{
															OFFSET -6.822578 -16.971161 0.000074
															CHANNELS 3 Xrotation Yrotation Zrotation
															JOINT BN_Reins_06
															{
																OFFSET -6.140354 -15.095148 0.000066
																CHANNELS 3 Xrotation Yrotation Zrotation
																End Site
																{
																	OFFSET -15.095150 6.140352 -0.000002
																}
															}
														}
													}
												}
											}
										}
										JOINT BN_hair01_01
										{
											OFFSET 8.957344 8.870956 0.112121
											CHANNELS 3 Xrotation Yrotation Zrotation
											JOINT BN_hair01_02
											{
												OFFSET 6.002075 -2.962952 -3.121264
												CHANNELS 3 Xrotation Yrotation Zrotation
												End Site
												{
													OFFSET 5.917702 3.813591 -2.232396
												}
											}
										}
										JOINT BN_Eyebrow_R
										{
											OFFSET 11.795959 -0.430496 4.449781
											CHANNELS 3 Xrotation Yrotation Zrotation
											JOINT Bip01_Xtra06Nub
											{
												OFFSET 2.936661 -0.262573 3.246701
												CHANNELS 3 Xrotation Yrotation Zrotation
												End Site
												{
													OFFSET 2.768745 0.208199 3.394807
												}
											}
										}
										JOINT BN_Eyebrow_L
										{
											OFFSET 11.586395 -0.445618 -4.441728
											CHANNELS 3 Xrotation Yrotation Zrotation
											JOINT Bip01_Xtra05Nub
											{
												OFFSET 3.244698 -0.349442 -4.416700
												CHANNELS 3 Xrotation Yrotation Zrotation
												End Site
												{
													OFFSET 3.053162 0.072495 -4.564033
												}
											}
										}
										JOINT Bip01_R_Ear_01
										{
											OFFSET 7.142960 7.567184 4.311657
											CHANNELS 3 Xrotation Yrotation Zrotation
											JOINT Bip01_Xtra04Nub
											{
												OFFSET 9.464531 9.264214 1.682953
												CHANNELS 3 Xrotation Yrotation Zrotation
												End Site
												{
													OFFSET 8.448181 10.159340 1.910823
												}
											}
										}
										JOINT Bip01__L_Ear_01
										{
											OFFSET 7.214943 7.717056 -4.356771
											CHANNELS 3 Xrotation Yrotation Zrotation
											JOINT Bip01_Xtra03Nub
											{
												OFFSET 9.230225 8.944366 -2.322746
												CHANNELS 3 Xrotation Yrotation Zrotation
												End Site
												{
													OFFSET 8.170288 9.841324 -2.643566
												}
											}
										}
										JOINT Bip01_Jaw
										{
											OFFSET 9.196068 -4.110695 -0.000013
											CHANNELS 3 Xrotation Yrotation Zrotation
											JOINT Bip01_Ponytail1Nub
											{
												OFFSET 10.976463 -21.082108 -0.000053
												CHANNELS 3 Xrotation Yrotation Zrotation
												End Site
												{
													OFFSET 11.247093 -20.938980 0.000113
												}
											}
										}
										JOINT Bip01_HeadNub
										{
											OFFSET 29.954575 -18.249489 -0.000063
											CHANNELS 3 Xrotation Yrotation Zrotation
											End Site
											{
												OFFSET -9.198448 -13.366348 0.000168
											}
										}
									}
								}
							}
						}
					}
				}
			}
		}
	}
}
MOTION
Frames: 4
Frame Time: 0.033333
0.000000 0.000000 0.000000 0.000008 0.000000 -0.000000 -0.000000 0.000000 -0.000000 0.000000 0.000000 -0.000006 0.000001 0.000002 -0.000002 1.253676 0.884616 30.357353 -0.343074 0.619927 22.505695 -0.761716 1.904661 17.651833 -0.566918 3.410055 7.364413 0.007156 3.342375 -1.491602 -0.000004 -0.000000 -0.000047 -0.230983 -0.215680 6.814663 0.423436 0.015251 -2.146457 -0.087913 -0.005129 0.446114 -0.085405 0.170817 -5.115141 -0.000051 -0.000041 -0.000019 -0.000000 -0.000042 0.000000 0.462108 -0.087687 -0.232222 -0.183919 -0.008577 -0.932675 -0.950389 -0.012111 -4.816054 0.659477 0.157921 5.981189 -0.000059 0.000014 -0.000003 0.008366 -0.000047 0.038681 0.000010 0.000009 0.000006 0.000047 -0.000073 0.000012 1.443403 -0.161708 -0.008268 0.000001 0.000003 -0.000033 0.000068 -0.000074 -0.000056 -0.000047 -0.041825 0.027948 1.973588 3.632377 4.930915 -0.488244 -0.148063 0.224959 2.234382 0.248990 -0.617701 0.000018 -0.000015 3.044593 -0.000043 0.000002 -3.044567 2.192866 -0.509195 2.670980 -0.001158 -0.091899 2.240849 -0.105520 0.002919 2.504919 0.867556 -0.013860 -7.177718 2.043568 -3.222192 0.294984 -0.802213 0.160589 -0.479855 -0.804181 0.123476 -0.482645 0.000007 0.000028 -3.044602 -0.060464 -0.007568 -0.633591 -0.012221 -0.174985 -4.277676 0.195848 0.090110 5.589300 -0.000029 0.000362 0.000008 0.005356 0.002477 0.861910 0.036613 0.063833 2.451881 -0.000914 0.100618 2.451955 1.009579 -1.242754 1.564131 0.259895 0.011343 0.011038 0.849369 0.068265 0.035990 0.000004 -0.000005 3.044622 1.398434 0.137225 -0.031118 -0.236269 -0.026726 0.210912 -0.139618 0.065741 0.445173 0.000013 -0.000049 -17.839831 0.000005 -0.000242 -21.499117 0.095288 -0.438044 8.699474 -0.000100 -0.000111 -36.278488 -0.000009 -0.000004 -1.797736 -0.000004 -0.000007 -2.378482 -0.000176 -0.000142 -56.409235 -23.901450 -11.934232 -2.561122 34.949166 16.671915 -5.206547 -0.000097 -0.000118 -38.339358 0.000007 0.000016 -0.000002 0.441273 1.445595 -0.931112 0.222190 0.252222 -0.391537 0.000038 -0.000023 -0.000004 0.024198 -0.030018 11.786614 0.000058 -0.000025 -0.000001 0.023206 -0.032304 11.716002 0.000036 -0.000032 0.000057 0.050265 0.015087 11.755990 -0.000035 0.000006 0.000018 0.050130 0.014744 11.743133 -0.000058 0.000052 6.290941 -0.004512 -0.052570 11.750689 0.000056 -0.000026 11.750673 
0.000000 0.000000 0.000000 0.000008 0.000000 -0.000000 -0.000000 0.000000 -0.000000 0.000000 0.000000 -0.000006 0.000063 0.000002 -0.000002 1.329151 0.700880 29.845878 -0.561734 1.128851 23.201704 -0.674350 1.677965 18.266014 -0.462146 2.724855 7.653463 -0.006970 2.984925 -1.491983 -0.000313 0.039397 0.015558 -0.230998 -0.237808 6.788788 0.423018 0.015243 -2.144343 -0.085862 -0.005009 0.435734 -0.086120 0.191179 -5.115362 -0.000051 -0.000013 -0.000019 -0.000000 -0.000041 0.000000 0.462352 -0.077585 -0.284182 -0.180710 -0.008457 -0.916356 -0.950846 -0.012099 -4.818371 0.657162 0.150153 5.981734 -0.000059 0.000015 -0.000003 0.008366 -0.000046 0.038681 -0.000854 -0.002872 -0.014925 0.007357 0.005857 -0.016706 1.436597 -0.161623 -0.009144 0.000825 -0.000045 -0.021264 0.000068 -0.000074 -0.000056 -0.000047 -0.041825 0.027948 1.973587 3.632379 4.930973 -0.488240 -0.148062 0.224960 2.234376 0.248990 -0.617702 0.000020 -0.000013 3.066138 -0.000012 -0.000045 -3.066427 2.196416 -0.509061 2.747956 -0.001188 -0.086691 2.113840 -0.108447 0.001538 2.559569 0.866916 -0.013813 -7.172301 2.044866 -3.225458 0.295118 -0.802254 0.160590 -0.479858 -0.804181 0.123476 -0.482645 -0.000012 0.000013 -3.066103 -0.053851 -0.002397 -0.546650 -0.012812 -0.180431 -4.411217 0.189537 0.093896 5.632658 -0.004737 0.000143 -0.038826 0.005336 0.002471 0.865768 0.036654 0.063833 2.451881 -0.000914 0.100618 2.451955 1.009563 -1.242766 1.564125 0.243129 0.006767 -0.017493 0.851744 0.068540 0.035790 0.000007 0.000000 3.066154 1.398441 0.137206 -0.031110 -0.229581 -0.024843 0.208140 -0.139443 0.065372 0.446526 0.118168 -0.051484 -17.862920 0.000005 -0.000242 -21.499118 0.093745 -0.392814 8.713234 -0.000100 -0.000111 -36.288949 -0.000009 -0.000004 -1.797736 -0.000004 -0.000007 -2.378478 -0.000176 -0.000142 -56.425426 -23.901450 -11.934232 -2.561122 34.949173 16.671916 -5.206548 -0.000097 -0.000118 -38.349057 -0.000003 0.000020 -0.000003 0.441264 1.445602 -0.931108 0.221403 0.254238 -0.398109 -0.047213 0.015455 0.004855 0.024224 -0.030001 11.786645 0.066071 -0.027726 -0.000019 0.023226 -0.032295 11.715966 0.000694 0.016082 -0.041381 0.050286 0.015120 11.756003 0.047659 -0.057331 -0.007031 0.050150 0.014781 11.743117 -0.000057 0.000052 6.335534 -0.004486 -0.052601 11.750690 0.000056 -0.000026 11.750675 
0.000000 0.000000 0.000000 0.000008 0.000000 -0.000000 -0.000000 0.000000 -0.000000 0.000000 0.000000 -0.000006 -0.002080 -0.084703 0.037872 1.382692 0.568594 29.444546 -0.738458 1.516698 23.726759 -0.613964 1.551894 18.735856 -0.377054 2.199755 7.876184 -0.020868 2.633274 -1.492425 -0.000623 0.083356 0.030091 -0.229031 -0.258422 6.759493 0.420502 0.015199 -2.131594 -0.082525 -0.004801 0.418801 -0.086845 0.211141 -5.115594 -0.000051 0.000079 -0.000019 -0.000000 -0.000041 0.000000 0.462445 -0.070127 -0.342504 -0.175379 -0.008249 -0.889336 -0.951284 -0.012087 -4.820583 0.654893 0.142537 5.982272 -0.000059 0.000015 -0.000003 0.008366 -0.000047 0.038681 -0.001702 -0.005700 -0.029566 0.014486 0.011648 -0.033102 1.429922 -0.161492 -0.009951 0.001645 -0.000083 -0.040492 0.000068 -0.000074 -0.000056 -0.000033 -0.055827 0.027948 1.973575 3.632368 4.930948 -0.488242 -0.148061 0.224962 2.234383 0.248990 -0.617700 0.000021 -0.000010 3.087259 -0.000028 -0.000092 -3.087839 2.200928 -0.509509 2.833394 -0.001208 -0.080681 1.967318 -0.111742 -0.000038 2.628826 0.866282 -0.013762 -7.167013 2.047083 -3.227699 0.295692 -0.802334 0.160589 -0.479864 -0.804181 0.123476 -0.482645 -0.000010 0.000016 -3.087182 -0.046167 0.002534 -0.450582 -0.013484 -0.186481 -4.559620 0.183337 0.097612 5.675341 -0.009332 -0.000071 -0.076911 0.005410 0.002503 0.869505 0.036733 0.063834 2.451880 -0.000914 0.100618 2.451954 1.009510 -1.242772 1.564131 0.231113 0.006994 -0.029846 0.854072 0.068809 0.035597 0.000010 0.000004 3.087244 1.398418 0.137198 -0.031117 -0.223034 -0.023000 0.205427 -0.139272 0.065010 0.447825 0.245331 -0.105137 -17.886835 0.000005 -0.000242 -21.499118 0.082297 -0.347573 8.728303 -0.000100 -0.000111 -36.299191 0.000001 -0.000008 -1.797736 -0.000004 -0.000007 -2.378482 -0.000176 -0.000142 -56.441302 -23.901450 -11.934232 -2.561129 34.949166 16.671909 -5.206552 -0.000097 -0.000118 -38.358595 0.000023 0.000009 -0.000020 0.441268 1.445612 -0.931108 0.220632 0.256204 -0.404554 -0.176585 0.056427 0.018616 0.024273 -0.029995 11.786705 0.246667 -0.103497 0.000126 0.023269 -0.032282 11.715903 0.002561 0.060298 -0.155093 0.050322 0.015193 11.756012 0.145825 -0.175425 -0.021330 0.050184 0.014851 11.743107 -0.000057 0.000052 6.379491 -0.004435 -0.052662 11.750684 0.000056 -0.000026 11.750672 
0.000000 0.000000 0.000000 0.000008 0.000000 -0.000000 -0.000000 0.000000 -0.000000 0.000000 0.000000 -0.000006 -0.000121 -0.131043 0.056366 1.426088 0.454137 29.137010 -0.855458 1.763451 24.072723 -0.579632 1.496335 19.035444 -0.320379 1.863697 8.019035 -0.028819 2.421995 -1.495796 -0.000935 0.132178 0.044055 -0.224842 -0.278147 6.726244 0.416407 0.015128 -2.110847 -0.078042 -0.004523 0.396045 -0.087564 0.231217 -5.115822 -0.000051 -0.000087 -0.000019 -0.000000 -0.000040 0.000000 0.462489 -0.063263 -0.403007 -0.168752 -0.007984 -0.855746 -0.952703 -0.012043 -4.827775 0.652611 0.134882 5.982809 -0.000059 0.000015 -0.000003 0.008366 -0.000048 0.038681 -0.002535 -0.008140 -0.044375 0.021700 0.017490 -0.049591 1.423187 -0.161391 -0.010793 0.002473 -0.000152 -0.059412 0.000068 -0.000074 -0.000056 -0.000047 -0.041825 0.027948 1.973531 3.632361 4.930943 -0.488245 -0.148059 0.224963 2.234381 0.248992 -0.617699 0.000023 -0.000007 3.108493 -0.000040 -0.000132 -3.109397 2.206512 -0.510698 2.929363 -0.001212 -0.073827 1.800223 -0.115520 -0.001754 2.712835 0.865271 -0.013683 -7.158628 2.049220 -3.231223 0.295816 -0.802284 0.160589 -0.479860 -0.804181 0.123478 -0.482645 -0.000011 0.000014 -3.108396 -0.037347 0.007312 -0.344233 -0.014247 -0.193185 -4.724121 0.176315 0.102297 5.723962 -0.013963 -0.000280 -0.115205 0.005493 0.002503 0.873296 0.036683 0.063834 2.451881 -0.000914 0.100618 2.451955 1.009346 -1.242803 1.564150 0.216542 0.019008 -0.049021 0.856420 0.069081 0.035401 0.000013 0.000008 3.108475 1.398339 0.137144 -0.031098 -0.216438 -0.021137 0.202685 -0.139094 0.064647 0.449151 0.381750 -0.161762 -17.912195 0.000005 -0.000242 -21.499115 0.068805 -0.301652 8.743913 -0.000100 -0.000111 -36.309518 -0.000009 -0.000004 -1.797736 -0.000004 -0.000007 -2.378478 -0.000176 -0.000142 -56.457282 -23.901448 -11.934231 -2.561129 34.949173 16.671913 -5.206550 -0.000098 -0.000118 -38.368663 0.000023 0.000010 -0.000020 0.441236 1.445605 -0.931109 0.219857 0.258179 -0.411020 -0.382778 0.084943 0.050959 0.024244 -0.030009 11.786668 0.529066 -0.221989 0.000803 0.023246 -0.032322 11.715944 0.005689 0.130091 -0.334633 0.050299 0.015149 11.756000 0.317315 -0.381875 -0.045882 0.050161 0.014805 11.743111 -0.000057 0.000053 6.429246 -0.004467 -0.052624 11.750694 0.000062 -0.000010 11.750672 
